<svg width="12" height="18" viewBox="0 0 12 18" fill="none" xmlns="http://www.w3.org/2000/svg">
<g clip-path="url(#clip0_302_477)">
<path d="M6.76713 3.55396C7.4911 2.81318 8.23248 2.2911 9.05391 1.8678C9.44026 1.66673 9.75004 1.3175 10.0981 1.0353C10.2478 0.911838 10.4009 0.756626 10.6098 0.901255C10.7594 1.00355 10.7525 1.29634 10.5749 1.51152C10.1747 1.99479 9.93799 2.54862 9.74308 3.14477C9.58645 3.61746 9.28363 4.03724 9.03998 4.47818C8.95993 4.61928 8.86595 4.75333 8.73717 4.95087C9.29059 5.07786 9.78484 5.02847 10.2547 4.92618C10.5053 4.86973 10.7351 4.66161 10.9439 4.48876C11.0657 4.38646 11.1388 4.22067 11.2258 4.07604C11.3163 3.93141 11.3999 3.76914 11.6017 3.80442C11.7758 3.83617 11.8976 4.16423 11.7932 4.38293C11.6609 4.66161 11.4973 4.92265 11.3372 5.18721C11.0309 5.6846 10.6167 6.11848 10.481 6.71464C10.4566 6.81694 10.3835 6.91923 10.3069 6.99684C9.58993 7.71646 9.14789 8.6442 8.51789 9.42731C8.02712 10.0376 7.54679 10.6549 7.06298 11.2722C6.7532 11.6673 6.43995 12.0624 6.14409 12.4716C5.68813 13.0995 5.08597 13.5616 4.40725 13.8896C3.86427 14.1542 3.25864 14.2918 2.6356 14.2565C2.47201 14.2459 2.30494 14.2565 2.10306 14.2565C1.68887 14.9691 1.35473 15.7346 1.04147 16.5106C0.895281 16.8739 0.742133 17.2373 0.588985 17.5971C0.557659 17.6747 0.526333 17.7699 0.467162 17.8123C0.383627 17.8722 0.261804 17.9357 0.178269 17.911C0.0982139 17.8899 -0.0131666 17.7594 -0.009686 17.6818C0.000755925 17.463 0.0181591 17.2196 0.112136 17.0292C0.491527 16.2813 0.679481 15.4488 1.13196 14.7363C1.20506 14.6198 1.23986 14.4787 1.306 14.3518C1.45915 14.0554 1.45566 13.7627 1.30252 13.4663C1.22594 13.3182 1.17025 13.1559 1.08324 13.0113C0.67252 12.3375 0.602907 11.5862 0.554178 10.8242C0.498488 9.89648 0.787381 9.07809 1.22246 8.27028C1.66102 7.45189 2.20052 6.70758 2.70522 5.93858C3.51621 4.69689 4.38637 3.50105 5.26697 2.30874C5.5489 1.92777 5.7473 1.48683 6.00486 1.08821C6.1058 0.929475 6.24503 0.784846 6.3947 0.671965C6.46083 0.62258 6.62442 0.640217 6.69403 0.696658C6.76364 0.749571 6.80889 0.887145 6.80193 0.982388C6.79149 1.11643 6.73232 1.25754 6.66967 1.37747C6.36685 1.96657 6.49564 2.58742 6.54784 3.19768C6.55481 3.29293 6.65226 3.38111 6.75668 3.55044L6.76713 3.55396ZM2.47897 13.5228C4.06267 13.6145 5.14515 12.9795 5.8552 11.6109C5.20084 11.5579 4.54648 11.5756 3.89211 11.5438C3.54405 11.5262 3.33173 11.7308 3.18206 12.0342C2.99759 12.4116 2.78875 12.7785 2.59732 13.1524C2.54859 13.2476 2.53118 13.357 2.47897 13.5228ZM5.3157 8.72181C5.9805 8.91229 6.93072 8.9511 7.43889 8.80294C7.56767 8.76414 7.70342 8.71122 7.80436 8.62656C8.03756 8.43255 8.2638 8.22795 8.47612 8.00572C8.55618 7.92105 8.5875 7.79054 8.66059 7.63885C7.73474 7.41309 6.88895 7.17322 5.97702 7.54714C5.79255 7.93869 5.30874 8.18209 5.3157 8.72181ZM1.61925 8.9511C0.985778 10.4468 1.14241 12.0941 1.94295 12.969C2.23185 12.5492 2.45113 12.1012 2.62864 11.6391C2.69477 11.4698 2.72262 11.2334 2.65649 11.0711C2.38152 10.3797 2.02301 9.72715 1.61925 8.9511ZM7.3832 9.56136C6.94464 9.54372 6.6453 9.52961 6.34945 9.52256C6.07448 9.5155 5.79951 9.53667 5.52802 9.50845C4.7031 9.42379 4.10443 9.94233 4.02786 10.8807C4.44206 10.8807 4.85277 10.8807 5.26349 10.8807C6.17542 10.8842 6.80193 10.408 7.3832 9.55783V9.56136ZM5.77514 2.91195C4.67526 3.97727 4.72399 5.21896 5.86912 6.44654C6.24503 6.16787 6.43298 5.85392 6.38425 5.32479C6.30768 4.50287 6.07448 3.74445 5.77514 2.91195ZM4.47338 8.54896C4.66134 8.24559 4.77968 7.99161 4.95719 7.79054C5.31222 7.38134 5.24608 6.96862 5.0268 6.54179C4.79708 6.09379 4.5604 5.65285 4.32023 5.21191C4.30283 5.18016 4.23322 5.1731 4.18797 5.15899C3.45007 6.19256 3.47444 7.20496 4.47338 8.54896ZM2.92102 6.96509C2.44417 7.63532 2.14831 8.30556 2.47549 9.10278C2.66693 9.56841 2.87577 10.027 3.26212 10.4115C3.72156 9.95997 4.04526 9.4767 3.7877 8.83116C3.53709 8.21031 3.22731 7.61416 2.92102 6.96509ZM10.1294 5.70223C9.87186 5.6846 9.68739 5.6599 9.49943 5.66696C9.33584 5.67049 9.16529 5.75515 9.01214 5.72693C8.28121 5.59994 7.66165 5.92447 7.03165 6.19256C6.92724 6.23489 6.87154 6.39363 6.74972 6.55943C7.48066 6.77108 8.15938 6.88043 8.84507 6.88396C9.57948 6.88749 9.85098 6.62292 10.1294 5.70223ZM7.32403 5.1343C7.96795 4.79566 8.28121 4.52051 8.68844 3.815C8.88684 3.4693 9.18965 3.14124 9.14789 2.61917C8.50397 2.88726 7.97143 3.24001 7.58508 3.7374C7.37624 4.00902 7.32055 4.40763 7.22309 4.75685C7.19873 4.84504 7.27182 4.95792 7.32055 5.1343H7.32403Z" fill="black"/>
</g>
<defs>
<clipPath id="clip0_302_477">
<rect width="11.8342" height="17.2744" fill="white" transform="translate(0 0.643555)"/>
</clipPath>
</defs>
</svg>
