<svg width="16" height="17" viewBox="0 0 16 17" fill="none" xmlns="http://www.w3.org/2000/svg">
<path d="M4.77516 3.33524C5.8306 4.39772 6.77072 5.50891 7.7561 6.63167C7.9847 6.89214 8.3207 7.15254 8.49866 7.44973C8.8957 8.11283 8.70422 8.29352 8.22742 8.78506C7.44911 9.58744 7.28749 9.28535 6.53752 8.56159C5.6634 7.71801 4.67585 7.06548 3.75872 6.29805C3.22361 5.85029 2.82411 5.82472 3.16281 5.14947C3.5202 4.43699 4.42752 3.71884 4.99926 3.16797C5.38378 2.7975 4.80136 2.20854 4.4175 2.57837C3.89733 3.07955 3.40887 3.60435 2.93371 4.14942C2.69256 4.42604 2.16618 4.85203 2.03667 5.2048C1.87104 5.65597 2.07976 5.94466 2.40338 6.30652C2.92277 6.8873 3.63754 7.45678 4.28798 7.87604C4.97425 8.31839 5.55845 8.75875 6.14156 9.3347C6.51716 9.70569 6.84478 10.2016 7.31976 10.4389C7.44353 10.5008 7.61358 10.5289 7.73501 10.4389C8.53082 9.8493 10.0872 8.62803 9.61796 7.51567C9.27102 6.69317 8.08786 5.72538 7.52921 5.02206C6.87696 4.2009 6.09371 3.48735 5.35692 2.74564C4.98084 2.36706 4.39881 2.95639 4.77516 3.33524Z" fill="black"/>
<path d="M12.332 9.04643C12.7427 9.69123 10.8699 11.2057 10.471 11.6C10.106 11.9607 9.73787 12.3278 9.34694 12.6598C8.95458 13.1674 8.54307 13.0628 8.11241 12.3461C8.2139 12.181 8.333 12.0312 8.4697 11.8967C9.07918 11.2149 9.75516 10.5487 10.5028 10.0331C11.0663 9.64446 11.811 8.53233 12.5055 9.00139C12.9473 9.29982 13.3597 8.57792 12.9207 8.28142C12.3742 7.91229 11.9078 7.80726 11.347 8.20502C11.0359 8.42573 10.8133 8.74367 10.5284 8.99311C10.1448 9.3289 9.6824 9.55385 9.2997 9.89413C8.47954 10.6234 6.53896 12.0983 7.43381 13.3939C8.43235 14.8396 9.98685 13.2224 10.7763 12.4596C11.5282 11.7332 12.3284 10.9785 12.957 10.1367C13.3276 9.64043 13.3843 9.16225 13.0424 8.62558C12.7563 8.17626 12.0438 8.59381 12.332 9.04643Z" fill="black"/>
<path d="M12.6015 10.2901C13.2661 10.9918 13.4855 12.0761 12.8185 12.8624C12.2593 13.5217 10.7008 13.9104 9.98673 13.2888C9.58702 12.9408 9.0025 13.528 9.40497 13.8784C10.4523 14.7901 12.457 14.4935 13.3689 13.4964C14.391 12.3789 14.1746 10.7472 13.1833 9.70052C12.8159 9.31265 12.2346 9.90276 12.6015 10.2901Z" fill="black"/>
<path d="M7.57929 11.9106C6.1813 10.8334 4.87569 9.62322 3.57856 8.41797C3.01909 7.89813 2.45607 7.38191 1.90002 6.85833C1.25291 6.24901 0.667178 5.91634 1.21179 4.66867C1.37778 4.28838 1.93112 3.90429 2.20901 3.609C2.75618 3.02757 3.34269 2.13895 4.03314 1.73738C5.46213 0.906254 6.5416 2.40532 7.37872 3.38757C8.12397 4.26201 8.92306 5.11236 9.60927 6.03524C10.183 6.8069 10.4356 7.71086 10.996 8.47808C11.3076 8.90466 12.022 8.48929 11.7064 8.05723C10.9339 6.9996 10.5219 5.81031 9.64845 4.77856C8.62292 3.56717 7.64422 2.15058 6.46607 1.09059C4.7051 -0.493798 3.22867 1.3177 2.00289 2.62024C1.38168 3.28035 0.306101 4.05167 0.0556849 4.97366C-0.230289 6.02657 0.645053 6.8141 1.31826 7.44792C3.21565 9.23434 5.10871 11.0468 7.16404 12.6306C7.58544 12.9553 7.99577 12.2316 7.57929 11.9106Z" fill="black"/>
<path d="M15.6024 14.6629C16.1318 14.6629 16.1327 13.8291 15.6024 13.8291C15.0731 13.8291 15.0722 14.6629 15.6024 14.6629Z" fill="black"/>
<path d="M15.5751 16.7196C16.1045 16.7196 16.1054 15.8857 15.5751 15.8857C15.0457 15.8857 15.0448 16.7196 15.5751 16.7196Z" fill="black"/>
<path d="M13.4911 16.7474C14.0205 16.7474 14.0214 15.9136 13.4911 15.9136C12.9617 15.9136 12.9609 16.7474 13.4911 16.7474Z" fill="black"/>
</svg>
