<svg width="11" height="18" viewBox="0 0 11 18" fill="none" xmlns="http://www.w3.org/2000/svg">
<path d="M3.20159 17.4292C3.8501 17.6999 4.55583 17.8159 5.24248 17.8159C6.61579 17.8159 8.00817 17.3133 9.03815 16.3854C9.95369 15.5735 11.3461 13.6984 10.4496 10.3542C10.1063 9.05904 9.4387 7.8992 8.80927 6.79735C7.83651 5.09625 6.84467 3.35648 6.86375 0.959474C6.86375 0.804829 6.76838 0.650183 6.63486 0.592191C6.48227 0.534199 6.32968 0.553529 6.19617 0.650183C2.64845 3.80109 -0.594079 9.52298 0.0925752 13.6404C0.435902 15.4382 1.50403 16.7527 3.20159 17.4292ZM6.11987 1.84869C6.31061 4.01373 7.24522 5.63751 8.14169 7.20329C8.77112 8.32447 9.38148 9.36833 9.70573 10.5668C10.2779 12.7319 9.85832 14.5683 8.52316 15.7861C7.20707 16.9653 5.14711 17.3326 3.50677 16.6753C2.05717 16.0954 1.17978 15.0129 0.931819 13.4858C0.32146 9.94825 3.049 4.88361 6.11987 1.84869Z" fill="black"/>
<path d="M5.35666 15.245C5.69999 15.245 5.79536 14.9937 5.79536 14.8584C5.79536 14.7231 5.71907 14.4524 5.39481 14.4331C5.37574 14.4331 5.33759 14.4331 5.31852 14.4331C4.99426 14.4718 4.91797 14.7231 4.91797 14.8584C4.91797 14.9937 5.03241 15.245 5.35666 15.245Z" fill="black"/>
<path d="M6.86332 14.8196C6.93962 14.8196 7.01591 14.8002 7.09221 14.7422C8.02682 14.085 8.44644 13.0798 8.25571 12.0359C8.21756 11.8233 8.00775 11.6686 7.77886 11.7266C7.56905 11.7653 7.41646 11.9779 7.47368 12.2099C7.62627 12.9251 7.32109 13.6211 6.65351 14.1043C6.48185 14.2396 6.42463 14.4909 6.55814 14.6649C6.61536 14.7616 6.72981 14.8196 6.86332 14.8196Z" fill="black"/>
</svg>
