<svg width="14" height="17" viewBox="0 0 14 17" fill="none" xmlns="http://www.w3.org/2000/svg">
<path d="M8.40972 3.2067C8.58424 3.53409 8.58509 3.8996 8.43592 4.34011C8.28231 4.79371 7.98912 5.26524 7.6563 5.74276C7.44971 6.03917 7.26944 6.33216 7.10893 6.59302C7.07085 6.65492 7.03387 6.71501 6.99792 6.77292C6.8039 7.08541 6.63897 7.33546 6.4612 7.53862C6.28894 7.73547 6.11438 7.87634 5.90912 7.97186C5.70356 8.06752 5.43474 8.13276 5.05475 8.13276C2.9512 8.13276 1.32266 6.55869 1.32266 4.70818C1.32266 2.85767 2.9512 1.28359 5.05475 1.28359C6.54417 1.28359 7.80984 2.08136 8.40972 3.2067Z" stroke="black" stroke-width="1.2"/>
<path d="M8.3327 10.0256C8.47682 9.72909 8.74152 9.56209 9.1929 9.49414C9.66366 9.42328 10.2329 9.47988 10.823 9.56301C10.8708 9.56974 10.9168 9.57615 10.9612 9.58234C11.3895 9.64198 11.6646 9.68028 11.8984 9.7829C12.1036 9.87298 12.293 10.0232 12.4637 10.4075C12.7164 10.9769 12.614 11.4999 12.2759 11.9905C11.9222 12.5039 11.32 12.9547 10.6653 13.2532C10.0103 13.5519 9.58567 13.5699 9.2866 13.4547C8.98516 13.3385 8.6533 13.0262 8.32798 12.2935C7.98028 11.5104 8.01677 10.6755 8.3327 10.0256Z" stroke="black" stroke-width="1.2"/>
<path d="M2.92184 12.3108C3.19557 12.3643 3.38309 12.5522 3.49261 12.9723C3.6065 13.4092 3.59438 13.9848 3.50856 14.5322C3.48014 14.7135 3.44401 14.8161 3.39784 14.8893C3.35691 14.9542 3.28225 15.0369 3.10424 15.1256C2.77752 15.2885 2.47121 15.2457 2.15322 15.0368C1.81311 14.8133 1.49629 14.4134 1.27753 13.9627C1.05824 13.5108 1.0548 13.2508 1.10846 13.0916C1.16191 12.9329 1.32619 12.7138 1.81533 12.47C2.18306 12.2867 2.57297 12.2426 2.92184 12.3108Z" stroke="black" stroke-width="1.2"/>
</svg>
